<?xml version="1.0" encoding="UTF-8"?>
<!-- Uploaded to: SVG Find, www.svgrepo.com, Generator: SVG Find Mixer Tools -->
<svg fill="#3f3f46" width="800px" height="800px" version="1.1" viewBox="144 144 512 512" xmlns="http://www.w3.org/2000/svg">
 <path d="m490.89 621.68c-3.7266 0-7.4062-1.0078-10.781-3.0234l-60.004-35.973c-3.8281-2.3164-5.0898-7.2539-2.7695-11.082 2.3164-3.8281 7.2539-5.0898 11.082-2.7695l60.004 35.973c2.168 1.3086 4.082 0.45312 4.8359 0.050781 0.75391-0.40234 2.418-1.6641 2.418-4.1797v-110.69c-2.168 4.2812-5.0898 7.9609-9.3711 10.48-9.2188 5.3398-20.402 2.2148-30.277-0.55469-6.0977-1.7148-13-3.6289-16.828-2.6211-3.5273 0.95703-8.3633 5.8945-12.594 10.277-5.3906 5.543-11.336 11.637-18.488 14.41v39.195c0 2.8203-1.5117 5.4922-3.9297 6.9531l-84.289 50.531c-6.5508 3.9297-14.461 4.0312-21.109 0.25-6.6484-3.7773-10.629-10.578-10.629-18.238v-90.535c0-4.4844 3.6289-8.1133 8.1133-8.1133s8.1133 3.6289 8.1133 8.1133v90.535c0 2.5195 1.7148 3.7773 2.418 4.1797 0.75391 0.40234 2.6719 1.2578 4.8359-0.050781l80.359-48.164v-34.613c-7.2031-2.7695-13.098-8.8672-18.488-14.41-4.2812-4.3828-9.1172-9.3711-12.594-10.277-3.8281-1.0078-10.73 0.90625-16.828 2.6211-9.875 2.7695-21.059 5.8945-30.277 0.55469-9.3711-5.4414-12.242-16.777-14.762-26.801-1.5117-6.0469-3.2734-12.898-5.9961-15.617-2.7188-2.7188-9.5742-4.4336-15.617-5.9961-10.027-2.5703-21.41-5.4414-26.801-14.762-5.3398-9.2188-2.2148-20.402 0.55469-30.277 1.7148-6.0977 3.6289-13 2.6211-16.828-0.95703-3.5273-5.8945-8.3633-10.277-12.594-7.5078-7.3047-15.973-15.516-15.973-26.602 0-11.082 8.5156-19.297 15.973-26.602 4.3828-4.2812 9.3711-9.0703 10.277-12.594 1.0078-3.8281-0.90625-10.73-2.6211-16.828-2.7695-9.875-5.8945-21.059-0.55469-30.277 5.4414-9.3711 16.777-12.242 26.801-14.762 6.0469-1.5117 12.898-3.2734 15.617-5.9961 2.7188-2.7188 4.4336-9.5742 5.9961-15.617 2.5195-10.027 5.4414-21.363 14.762-26.801 9.2188-5.3398 20.402-2.2148 30.277 0.55469 6.0977 1.7148 13 3.6289 16.828 2.6211 3.5273-0.95703 8.3633-5.8945 12.594-10.277 7.3047-7.5078 15.566-15.973 26.602-15.973s19.297 8.5156 26.602 15.973c4.2812 4.3828 9.0703 9.3711 12.645 10.328 3.8281 1.0078 10.73-0.90625 16.828-2.6211 9.875-2.7695 21.059-5.8945 30.277-0.55469 9.3711 5.3906 12.242 16.777 14.762 26.754l-7.8086 2.0664 7.8594-1.9648c1.5117 6.0469 3.2734 12.898 5.9453 15.566 2.7188 2.7188 9.5742 4.4336 15.617 5.9961 10.027 2.5195 21.363 5.4414 26.801 14.762 5.3398 9.2188 2.2148 20.402-0.55469 30.277-1.7148 6.0977-3.6289 13-2.6211 16.879 0.95703 3.5273 5.8945 8.3633 10.277 12.594l-5.6445 5.793 5.6445-5.793c7.5078 7.3047 15.973 15.516 15.973 26.602 0 11.082-8.5156 19.297-15.973 26.602-4.3828 4.2812-9.3711 9.0703-10.277 12.645-1.0078 3.8281 0.90625 10.73 2.6211 16.828 2.7695 9.875 5.8945 21.059 0.55469 30.277-5.4414 9.3711-16.777 12.242-26.801 14.762-3.6797 0.95703-7.6562 1.9648-10.832 3.2227v145.4c0 7.6562-3.9805 14.461-10.629 18.238-3.2734 1.8633-6.8008 2.7695-10.328 2.7695zm-90.887-114.31c4.2305 0 9.9258-5.8945 14.965-11.082 5.9961-6.1953 12.191-12.543 20.051-14.66 8.1133-2.168 16.879 0.30078 25.391 2.6719 6.4492 1.8125 14.508 4.082 17.836 2.1172 3.4258-2.0156 5.543-10.176 7.2031-16.727 2.0664-8.1133 4.3828-17.23 10.227-23.125 5.8438-5.8438 14.609-8.0625 23.023-10.227 6.6016-1.6641 14.812-3.7266 16.828-7.2031 1.9141-3.3242-0.30078-11.387-2.1172-17.836-2.3672-8.4648-4.8359-17.23-2.6719-25.391 2.1172-7.8594 8.4648-14.055 14.66-20.051 5.1875-5.0391 11.082-10.781 11.082-14.965 0-4.1797-5.8945-9.9258-11.082-14.965l5.6445-5.793-5.6445 5.793c-6.1953-5.9961-12.543-12.191-14.66-20.051-2.168-8.1133 0.30078-16.879 2.6719-25.391 1.8125-6.4492 4.082-14.508 2.1172-17.836-2.0156-3.4766-10.176-5.543-16.777-7.2031-8.4648-2.168-17.23-4.3828-23.074-10.227s-8.0625-14.609-10.227-23.023c-1.6641-6.6484-3.7266-14.812-7.2031-16.777-3.3242-1.9141-11.387 0.30078-17.836 2.1172-8.4648 2.3672-17.23 4.8359-25.391 2.6719-7.8594-2.1172-14.055-8.4648-20.051-14.66-5.0391-5.1875-10.781-11.082-14.965-11.082-4.1797 0-9.9258 5.8945-14.965 11.082-5.9961 6.1953-12.191 12.543-20.051 14.66-8.1133 2.168-16.879-0.30078-25.391-2.6719-6.4492-1.8125-14.508-4.082-17.836-2.1172-3.4766 2.0156-5.543 10.176-7.2031 16.777-2.168 8.4648-4.3828 17.23-10.227 23.074s-14.609 8.0625-23.074 10.227c-6.6016 1.6641-14.762 3.7266-16.777 7.2031-1.9141 3.3242 0.30078 11.387 2.1172 17.836 2.3672 8.4648 4.8359 17.23 2.6719 25.391-2.1172 7.8594-8.4648 14.055-14.66 20.051-5.1875 5.0391-11.082 10.781-11.082 14.965 0 4.1797 5.8945 9.9258 11.082 14.965 6.1953 5.9961 12.543 12.191 14.66 20.051 2.168 8.1133-0.30078 16.879-2.6719 25.391-1.8125 6.4492-4.082 14.508-2.1172 17.836 2.0156 3.4766 10.176 5.543 16.727 7.2031 8.1133 2.0664 17.23 4.3828 23.125 10.227 5.8438 5.8438 8.0625 14.609 10.227 23.074 1.6641 6.6016 3.7266 14.762 7.2031 16.777 3.3242 1.9141 11.387-0.35156 17.836-2.1172 8.4648-2.3672 17.23-4.8359 25.391-2.6719 7.8594 2.1172 14.055 8.4648 20.051 14.66 5.0391 5.1875 10.781 11.082 15.012 11.082zm0-44.535c-61.668 0-111.89-50.18-111.89-111.89 0-21.363 6.0469-42.117 17.48-60.055 2.418-3.7773 7.4062-4.8867 11.184-2.4688 3.7773 2.418 4.8867 7.4062 2.4688 11.184-9.7734 15.316-14.965 33.102-14.965 51.387 0 52.75 42.926 95.672 95.672 95.672 52.75 0 95.672-42.926 95.672-95.672 0-52.75-42.926-95.672-95.672-95.672-16.828 0-33.352 4.4336-47.863 12.797-3.8789 2.2148-8.8164 0.90625-11.035-2.9727-2.2148-3.8789-0.90625-8.8164 2.9727-11.035 16.93-9.7734 36.273-14.965 55.922-14.965 61.668 0 111.89 50.18 111.89 111.89s-50.18 111.89-111.89 111.89z"/>
</svg>